<?xml version="1.0" standalone="no"?>
<!DOCTYPE svg PUBLIC "-//W3C//DTD SVG 20010904//EN"
 "http://www.w3.org/TR/2001/REC-SVG-20010904/DTD/svg10.dtd">
<svg version="1.0" xmlns="http://www.w3.org/2000/svg"
 width="822.000000pt" height="848.000000pt" viewBox="0 0 822.000000 848.000000"
 preserveAspectRatio="xMidYMid meet">

<g transform="translate(0.000000,848.000000) scale(0.100000,-0.100000)"
fill="#000000" stroke="none">
<path d="M3865 7239 c-830 -90 -1574 -616 -1924 -1360 -100 -213 -170 -444
-207 -679 -23 -143 -26 -527 -6 -665 130 -902 716 -1637 1556 -1949 125 -47
328 -99 476 -122 143 -23 527 -26 665 -6 902 130 1637 716 1949 1556 47 125
99 328 122 476 23 143 26 527 6 665 -130 902 -716 1637 -1556 1949 -124 47
-329 99 -471 121 -131 20 -478 28 -610 14z m-227 -598 c148 -75 161 -84 225
-156 l69 -75 69 -207 69 -207 0 -299 0 -299 -70 -212 -70 -212 -152 -150 -153
-149 -163 -80 -163 -79 288 -288 287 -287 31 22 c16 13 173 126 348 251 l317
227 0 838 0 838 75 154 c68 140 81 160 147 226 64 62 93 81 225 147 l153 76
147 0 148 0 82 -82 83 -83 0 -92 0 -93 -127 0 -128 0 88 88 87 88 -53 52 -53
52 -135 0 -135 0 -57 -58 -57 -58 -70 -209 -70 -209 0 -911 0 -910 123 -123
124 -123 129 130 129 131 27 -24 27 -24 -295 -293 -295 -293 -159 159 -160
159 -2 181 -3 181 -475 -337 -475 -337 -377 376 c-208 207 -375 378 -372 381
3 3 107 40 232 83 l227 78 132 132 133 133 70 210 70 210 0 484 0 484 -71 136
c-54 103 -86 151 -132 199 l-61 62 -133 0 -133 0 -130 -65 -130 -65 -60 -120
c-33 -66 -60 -123 -60 -127 0 -5 20 -30 44 -58 l45 -50 51 50 51 50 -62 55
-61 55 26 25 27 24 79 -80 80 -79 -95 -95 -95 -95 -89 89 -89 89 76 155 77
154 155 78 155 79 143 0 142 1 158 -79z"/>
</g>
</svg>
